#!OML:ASF H:\Terrain\Walking\May29\JustinRory\rory.ASF
:FULLY-SPECIFIED
:DEGREES
2021
root 10.034 18.4344 -14.4792 -0.517493 -13.6268 4.19478
lowerback -4.43216 -0.0826837 -4.68027
upperback -1.00329 0.11653 -0.971659
thorax 1.4452 0.04171 1.63164
lowerneck -13.2458 -4.41875 -2.93578
upperneck 18.6423 -7.27921 8.3372
head 8.40693 -2.85508 2.44933
rclavicle -4.66833e-015 1.10139e-014
rhumerus -6.34845 15.4448 -76.3897
rradius 102.699
rwrist 22.4583
rhand -38.3986 67.1467
rfingers 7.12502
rthumb -11.4237 37.4779
lclavicle -4.66833e-015 1.10139e-014
lhumerus -22.1727 2.72142 88.5571
lradius 77.682
lwrist 28.5307
lhand -50.8392 29.4685
lfingers 7.12502
lthumb -23.3944 58.0666
rfemur 2.94738 10.8614 12.3643
rtibia 8.60723
rfoot -7.34993 -15.4669
rtoes 5.06616
lfemur -0.339881 -7.737 -18.7718
ltibia 9.04915
lfoot -12.3163 20.3197
ltoes -5.09118
2022
root 10.0362 18.4337 -14.4817 -0.570525 -13.7604 4.2845
lowerback -4.45603 -0.0902932 -4.81999
upperback -1.1187 0.109712 -0.9693
thorax 1.33964 0.0417458 1.71182
lowerneck -12.8996 -4.4782 -3.09229
upperneck 18.475 -7.36605 8.56063
head 8.30813 -2.90018 2.54519
rclavicle -4.80189e-015 2.45996e-015
rhumerus -6.87505 15.6151 -76.7697
rradius 101.998
rwrist 22.056
rhand -38.0148 66.8147
rfingers 7.12502
rthumb -11.0535 37.1258
lclavicle -4.80189e-015 2.45996e-015
lhumerus -22.3911 2.64151 88.4831
lradius 77.5968
lwrist 23.5099
lhand -51.442 27.8134
lfingers 7.12502
lthumb -23.9725 56.3366
rfemur 2.98408 10.9674 12.234
rtibia 8.49426
rfoot -7.2945 -15.3951
rtoes 5.2858
lfemur -0.342811 -7.61426 -18.8966
ltibia 9.13915
lfoot -12.5322 20.2966
ltoes -5.04455
2023
root 10.0387 18.4348 -14.4861 -0.539303 -13.8554 4.10465
lowerback -4.52456 -0.0889734 -4.66382
upperback -1.16154 0.105902 -0.898949
thorax 1.33436 0.0409787 1.69672
lowerneck -12.8486 -4.56604 -3.24536
upperneck 18.2762 -7.47635 8.7383
head 8.25279 -2.95278 2.61686
rclavicle 1.34118e-014 -1.48095e-014
rhumerus -7.18409 15.7192 -77.0961
rradius 101.146
rwrist 21.7416
rhand -37.336 66.2601
rfingers 7.12502
rthumb -10.3988 36.5372
lclavicle 1.34118e-014 -1.48095e-014
lhumerus -22.4479 2.47585 88.3807
lradius 77.6145
lwrist 18.4488
lhand -50.7073 26.1283
lfingers 7.12502
lthumb -23.2679 54.7424
rfemur 2.89751 11.0243 12.4485
rtibia 8.63618
rfoot -7.31796 -15.335
rtoes 4.86464
lfemur -0.277975 -7.51793 -18.7145
ltibia 9.02943
lfoot -12.3539 20.3778
ltoes -4.91016
2024
root 10.0404 18.4347 -14.4916 -0.667806 -13.9919 4.11162
lowerback -4.54076 -0.112362 -4.69554
upperback -1.1098 0.0793404 -0.919355
thorax 1.39839 0.025538 1.69202
lowerneck -13.116 -4.59692 -3.23719
upperneck 18.278 -7.55096 8.88586
head 8.31368 -2.96558 2.65118
rclavicle -2.70976e-014 -5.48521e-015
rhumerus -7.18959 15.8106 -77.6742
rradius 99.9301
rwrist 21.8336
rhand -37.4083 65.9283
rfingers 7.12502
rthumb -10.4685 36.209
lclavicle -2.70976e-014 -5.48521e-015
lhumerus -22.4095 2.44932 88.1258
lradius 77.6713
lwrist 13.4685
lhand -50.4659 25.2104
lfingers 7.12502
lthumb -23.0362 53.8536
rfemur 2.89045 11.1298 12.4876
rtibia 8.85423
rfoot -7.36234 -15.2892
rtoes 4.39726
lfemur -0.0664913 -7.39346 -18.7449
ltibia 8.89604
lfoot -12.1896 20.4494
ltoes -4.61776
2025
root 10.0426 18.4319 -14.4973 -0.895987 -14.2149 4.50659
lowerback -4.51032 -0.167193 -5.22153
upperback -1.03623 0.032802 -1.01083
thorax 1.45945 -0.00186938 1.88937
lowerneck -13.3833 -4.61425 -3.05391
upperneck 18.1384 -7.61606 8.96105
head 8.31722 -2.9726 2.63246
rclavicle -1.37761e-014 2.0012e-014
rhumerus -7.10237 16.028 -78.348
rradius 98.6778
rwrist 21.7489
rhand -37.8512 65.1861
rfingers 7.12502
rthumb -10.8958 35.4888
lclavicle -1.37761e-014 2.0012e-014
lhumerus -22.3517 2.42157 87.8252
lradius 77.9221
lwrist 9.13866
lhand -50.8176 24.3816
lfingers 7.12502
lthumb -23.3736 52.9824
rfemur 2.83378 11.3518 12.0312
rtibia 9.01523
rfoot -7.36883 -15.3178
rtoes 4.06815
lfemur 0.140079 -7.17756 -19.2014
ltibia 8.79397
lfoot -12.2188 20.4578
ltoes -5.1342
2026
root 10.0472 18.4282 -14.5065 -1.00925 -14.3106 4.63014
lowerback -4.50105 -0.243428 -5.47188
upperback -0.967176 -0.0553125 -0.981594
thorax 1.53182 -0.049643 2.05439
lowerneck -13.6892 -4.70977 -2.90318
upperneck 17.9665 -7.73139 8.81418
head 8.31104 -3.0267 2.53771
rclavicle 7.50179e-015 -1.07716e-014
rhumerus -7.15494 16.3568 -78.7731
rradius 97.6764
rwrist 21.3015
rhand -38.5815 64.7563
rfingers 7.12502
rthumb -11.6001 35.0973
lclavicle 7.50179e-015 -1.07716e-014
lhumerus -22.3803 2.07842 87.6458
lradius 78.5932
lwrist 6.06322
lhand -51.3879 23.9711
lfingers 7.12502
lthumb -23.9207 52.5012
rfemur 2.68586 11.4265 11.8503
rtibia 9.28587
rfoot -7.16452 -15.305
rtoes 2.38336
lfemur 0.282016 -7.09047 -19.3488
ltibia 8.62913
lfoot -12.2275 20.5037
ltoes -5.55172
2027
root 10.0474 18.4242 -14.5091 -1.2399 -14.6716 4.56215
lowerback -4.47374 -0.157009 -5.43598
upperback -0.908919 0.0582288 -0.964867
thorax 1.56808 0.00520326 2.05806
lowerneck -14.5092 -4.76945 -2.36605
upperneck 18.5448 -7.83474 8.11057
head 8.60916 -3.0671 2.18649
rclavicle -2.91577e-014 2.04748e-014
rhumerus -7.46284 16.5079 -79.213
rradius 96.9467
rwrist 20.4761
rhand -38.7324 64.3183
rfingers 7.12502
rthumb -11.7456 34.6676
lclavicle -2.91577e-014 2.04748e-014
lhumerus -22.6378 1.26825 87.4324
lradius 79.5239
lwrist 4.21737
lhand -52.0196 23.7399
lfingers 7.12502
lthumb -24.5263 52.1893
rfemur 2.71122 11.7815 11.9485
rtibia 9.56426
rfoot -7.04362 -15.2027
rtoes 1.20244
lfemur 0.648807 -6.74241 -19.3026
ltibia 8.51307
lfoot -12.3061 20.5021
ltoes -5.17513
2028
root 10.0447 18.4273 -14.5219 -1.19119 -15.0576 4.5234
lowerback -4.70727 -0.0302045 -5.50905
upperback -0.890897 0.246286 -0.912983
thorax 1.70258 0.0948483 2.16401
lowerneck -13.9799 -4.71407 -2.77574
upperneck 17.7991 -7.7444 8.80058
head 8.30359 -3.02155 2.50434
rclavicle 9.30638e-015 -1.10574e-015
rhumerus -7.66105 16.3833 -79.5627
rradius 96.3605
rwrist 19.5231
rhand -38.2443 63.4706
rfingers 7.12502
rthumb -11.2749 33.7937
lclavicle 9.30638e-015 -1.10574e-015
lhumerus -22.9003 0.504345 87.3859
lradius 80.7289
lwrist 2.93067
lhand -52.1811 23.4661
lfingers 7.12502
lthumb -24.6811 51.8943
rfemur 2.47355 12.1206 11.9869
rtibia 9.65326
rfoot -6.98843 -15.1729
rtoes 1.00705
lfemur 0.58801 -6.36703 -19.2198
ltibia 8.58467
lfoot -12.4089 20.4171
ltoes -4.6735
2029
root 10.0467 18.4291 -14.5321 -1.22012 -15.2796 4.50843
lowerback -4.85557 0.0527092 -5.57782
upperback -0.759707 0.373482 -0.789838
thorax 1.90992 0.150056 2.33837
lowerneck -14.1895 -4.8663 -3.33098
upperneck 17.5659 -7.91116 9.29747
head 8.31887 -3.08939 2.73704
rclavicle -6.65618e-015 -1.45113e-014
rhumerus -7.89178 16.3207 -79.7038
rradius 96.1161
rwrist 18.6444
rhand -38.3102 62.3579
rfingers 7.12502
rthumb -11.3384 32.6844
lclavicle -6.65618e-015 -1.45113e-014
lhumerus -23.0257 -0.0175119 87.5746
lradius 82.1585
lwrist 1.94827
lhand -51.8242 22.1361
lfingers 7.12502
lthumb -24.3389 50.6106
rfemur 2.40694 12.3101 11.9977
rtibia 9.65037
rfoot -6.88835 -15.2102
rtoes 0.347674
lfemur 0.549899 -6.15661 -19.196
ltibia 8.7425
lfoot -12.653 20.3186
ltoes -3.25907
2030
root 10.0494 18.4261 -14.5341 -1.34098 -15.3342 4.48378
lowerback -4.64851 0.0377794 -5.56574
upperback -0.729665 0.338665 -0.717775
thorax 1.82743 0.134305 2.40281
lowerneck -14.6384 -5.04408 -3.6526
upperneck 17.4118 -8.1308 9.61339
head 8.39249 -3.17392 2.85956
rclavicle 4.87519e-014 7.7526e-015
rhumerus -8.52917 16.5011 -80.0646
rradius 96.3174
rwrist 17.6974
rhand -38.8932 60.4543
rfingers 7.12502
rthumb -11.9007 30.8125
lclavicle 4.87519e-014 7.7526e-015
lhumerus -23.4438 -0.404006 87.8327
lradius 83.7888
lwrist 1.47986
lhand -52.254 23.502
lfingers 7.12502
lthumb -24.7509 51.9206
rfemur 2.51248 12.3478 12.0326
rtibia 9.65377
rfoot -7.11832 -15.2377
rtoes 0.967895
lfemur 0.575702 -6.11553 -19.1807
ltibia 8.92667
lfoot -12.8219 20.3224
ltoes -2.44861
2031
root 10.0554 18.4218 -14.5353 -1.40778 -15.3922 4.32914
lowerback -4.40621 0.0342224 -5.3749
upperback -0.831085 0.303805 -0.675793
thorax 1.59067 0.12583 2.33578
lowerneck -14.686 -5.12454 -3.88448
upperneck 17.1773 -8.24238 9.97614
head 8.35822 -3.2122 3.00345
rclavicle 3.6918e-014 3.62782e-015
rhumerus -9.51432 16.5981 -80.6093
rradius 96.7669
rwrist 16.6347
rhand -39.3143 58.4029
rfingers 7.12502
rthumb -12.3067 28.7851
lclavicle 3.6918e-014 3.62782e-015
lhumerus -24.3425 -0.718973 88.5542
lradius 85.6023
lwrist 0.961981
lhand -52.7437 23.8286
lfingers 7.12502
lthumb -25.2202 52.182
rfemur 2.59095 12.3831 12.1827
rtibia 9.65641
rfoot -7.2677 -15.2687
rtoes 1.3902
lfemur 0.603142 -6.07377 -19.0372
ltibia 9.08929
lfoot -12.9317 20.3424
ltoes -2.94751
2032
root 10.0639 18.4191 -14.5377 -1.51879 -15.528 4.2868
lowerback -4.34679 0.0823688 -5.25343
upperback -0.805448 0.3595 -0.681004
thorax 1.58024 0.154025 2.26526
lowerneck -14.6716 -5.24955 -3.96299
upperneck 16.7913 -8.404 10.1952
head 8.25358 -3.28461 3.06725
rclavicle 3.37375e-014 1.28216e-014
rhumerus -10.3235 16.4805 -81.0738
rradius 97.389
rwrist 15.32
rhand -39.7734 56.4962
rfingers 7.12502
rthumb -12.7493 26.9054
lclavicle 3.37375e-014 1.28216e-014
lhumerus -23.7907 -1.77642 88.1118
lradius 86.4986
lwrist 2.07016
lhand -53.0514 23.5582
lfingers 7.12502
lthumb -25.515 51.8697
rfemur 2.6376 12.5011 12.1942
rtibia 9.70223
rfoot -7.21835 -15.2638
rtoes 2.31332
lfemur 0.68899 -5.95154 -19.0344
ltibia 9.21452
lfoot -13.0181 20.3259
ltoes -3.41968
2033
root 10.0703 18.4173 -14.5492 -1.66162 -15.5245 4.46561
lowerback -4.17567 -0.091646 -5.45357
upperback -0.583485 0.133209 -0.620842
thorax 1.73043 0.0323636 2.42656
lowerneck -15.541 -5.30102 -4.00741
upperneck 16.6418 -8.42486 10.1618
head 8.36259 -3.27542 3.04334
rclavicle -5.85794e-015 8.64713e-015
rhumerus -10.5242 16.8867 -81.4317
rradius 98.073
rwrist 14.1773
rhand -41.3334 55.7251
rfingers 7.12502
rthumb -14.2529 26.2341
lclavicle -5.85794e-015 8.64713e-015
lhumerus -23.2374 -1.85268 87.8772
lradius 87.9652
lwrist 2.77392
lhand -52.9093 24.3239
lfingers 7.12502
lthumb -25.3788 52.6548
rfemur 2.65149 12.4819 12.0056
rtibia 9.80132
rfoot -7.33177 -15.2173
rtoes 4.01855
lfemur 0.694793 -5.96274 -19.2463
ltibia 9.30995
lfoot -12.8112 20.3291
ltoes -4.38356
2034
root 10.0766 18.4159 -14.5582 -1.76789 -15.6862 4.56735
lowerback -4.08076 0.102687 -5.5526
upperback -0.78154 0.385139 -0.833486
thorax 1.45287 0.168281 2.27543
lowerneck -14.6078 -5.44884 -3.47223
upperneck 15.9564 -8.70281 10.1889
head 7.96788 -3.42456 2.94357
rclavicle 2.67086e-014 -1.16289e-014
rhumerus -12.216 16.5228 -82.3446
rradius 98.9229
rwrist 13.8513
rhand -44.3171 57.5324
rfingers 7.12502
rthumb -17.1264 28.2673
lclavicle 2.67086e-014 -1.16289e-014
lhumerus -24.0786 -3.18175 87.3132
lradius 90.0768
lwrist 3.63732
lhand -52.5587 28.2181
lfingers 7.12502
lthumb -25.043 56.5964
rfemur 2.57569 12.6218 11.8857
rtibia 9.93202
rfoot -7.28073 -15.1644
rtoes 3.86104
lfemur 0.772136 -5.80912 -19.369
ltibia 9.30822
lfoot -12.6011 20.2999
ltoes -5.21478
2035
root 10.0824 18.4144 -14.5683 -1.79896 -15.8258 4.56282
lowerback -3.95415 0.123156 -5.53673
upperback -0.864818 0.399919 -0.862772
thorax 1.29516 0.181211 2.2361
lowerneck -14.248 -5.52102 -3.44533
upperneck 15.3696 -8.78491 10.3679
head 7.72481 -3.47736 2.9937
rclavicle 2.37858e-014 -6.80837e-015
rhumerus -13.1872 16.0664 -82.9994
rradius 99.8664
rwrist 10.2359
rhand -39.0302 52.3116
rfingers 7.12502
rthumb -12.0328 22.6775
lclavicle 2.37858e-014 -6.80837e-015
lhumerus -25.0718 -3.88263 86.5653
lradius 92.5105
lwrist 4.82509
lhand -51.9141 26.6567
lfingers 7.12502
lthumb -24.4252 55.1196
rfemur 2.44798 12.7297 11.8636
rtibia 10.0447
rfoot -7.14553 -15.0926
rtoes 3.54528
lfemur 0.814975 -5.67994 -19.3717
ltibia 9.27273
lfoot -12.4876 20.2886
ltoes -4.79689
